<svg id="Layer_1" xmlns="http://www.w3.org/2000/svg" xmlns:xlink="http://www.w3.org/1999/xlink" viewBox="0 0 111.3 111.3"><style>.st0{fill:none;stroke:#fc1037;stroke-width:4;stroke-miterlimit:10}.st1{fill:#efc167}.st2{clip-path:url(#SVGID_2_);fill:#d6bd88}.st3{fill:#852c42}.st4{fill:#9b5166}.st5{fill:#fff2bb}.st6{fill:#687c15}.st7{fill:#5e6b13}.st8{fill:#fff54c}.st9{fill:#f7e597}.st10{fill:#7baa49}.st11{fill:#96d85b}.st12{clip-path:url(#SVGID_4_);fill:#d6bd88}.st13{fill:#cce8f3}.st14{fill:#054a5e}.st15{fill:#96d0e2}.st16{fill:#62b8db}.st17{clip-path:url(#SVGID_6_);fill:#d6bd88}.st18{fill:#1e5c6e}.st19{fill:#ffe669}.st20{fill:#e8f4f9}.st21,.st22{fill:none;stroke:#50818f;stroke-width:1.761;stroke-miterlimit:10}.st22{stroke:#914255;stroke-width:1.784}.st23{clip-path:url(#SVGID_8_);fill:#d6bd88}.st24{fill:#c3e3ed}.st25{clip-path:url(#SVGID_10_);fill:#d6bd88}.st26{fill:#376e7e}.st27{fill:none;stroke:#efc167;stroke-width:1.956;stroke-miterlimit:10}.st28{clip-path:url(#SVGID_12_);fill:#d6bd88}.st29{fill:#fffa5f}.st30{fill:none;stroke:#efc167;stroke-width:1.118;stroke-miterlimit:10}.st31{fill:#fdffca}.st32{fill:#a0d4e9}.st33{clip-path:url(#SVGID_14_);fill:#d6bd88}.st34{fill:#04bbdf}.st35{fill:#b3d335}.st36{opacity:.3}.st37{clip-path:url(#SVGID_16_);fill:#fff}.st38,.st39,.st40{clip-path:url(#SVGID_18_);fill:#d6bd88}.st39,.st40{clip-path:url(#SVGID_20_)}.st40{clip-path:url(#SVGID_22_)}.st41{fill:#04bf00}.st42{fill:#9d5668}.st43{clip-path:url(#SVGID_24_);fill:#d6bd88}.st44{fill:#f5daa4}.st45{clip-path:url(#SVGID_26_);fill:#d6bd88}.st46{fill:#dae8ed}.st47{fill:#fff}.st48,.st49{fill:none;stroke:#50818f;stroke-width:2.932;stroke-miterlimit:10}.st49{stroke-width:2.153}.st50{fill:#ff5200}.st51{clip-path:url(#SVGID_28_);fill:#d6bd88}.st52{fill:#ff6200}.st53,.st54{clip-path:url(#SVGID_30_);fill:#d6bd88}.st54{clip-path:url(#SVGID_32_)}.st55{fill:#eed9b5}.st56,.st57,.st58{clip-path:url(#SVGID_34_);fill:#fff}.st57,.st58{fill:#f5daa4}.st58{fill:#852c42}.st59{clip-path:url(#SVGID_36_);fill:#d6bd88}.st60{fill:#5ed65b}.st61{fill:#ff4e22}.st62{clip-path:url(#SVGID_38_);fill:#d6bd88}.st63{fill:#ffc9bf}.st64,.st65{fill:none;stroke-width:2.527;stroke-miterlimit:10}.st64{stroke-linecap:round;stroke-linejoin:round;stroke:#ffc9bf}.st65{stroke:#fff1eb}.st66{clip-path:url(#SVGID_40_);fill:#d6bd88}.st67{fill:#ffec9c}.st68{fill:none;stroke-linecap:round}.st68,.st69{stroke:#fffae3;stroke-width:3;stroke-miterlimit:10}.st69,.st70{fill:none}.st71{clip-path:url(#SVGID_42_);fill:#d6bd88}.st72{fill:#fffae3}.st73{clip-path:url(#SVGID_44_);fill:#d6bd88}.st74{fill:#ffffd9}.st75{fill:#997a59}.st76{fill:#683300}.st77{fill:#774e22}.st78{fill:#ff0014}.st79{clip-path:url(#SVGID_46_);fill:#d6bd88}.st80{fill:#00b3df}.st81{fill:#1fd2ff}.st82{fill:#1fe8ff}.st83{fill:#344756}.st84{fill:#f3c149}.st85{fill:#ffbe4b}</style><path class="st1" d="M111.3 55.7c0 30.7-24.9 55.7-55.7 55.7S0 86.4 0 55.7C0 24.9 24.9 0 55.7 0s55.6 24.9 55.6 55.7"/><defs><path id="SVGID_35_" d="M26.7 50.1h83.9v61.1H26.7z"/></defs><clipPath id="SVGID_2_"><use xlink:href="#SVGID_35_" overflow="visible"/></clipPath><path class="st2" d="M26.7 77.6l33.6 33.6c25.5-2.1 46.1-21.3 50.3-46.2l-15-14.9-27.5 24.7-41.4 2.8z"/><path class="st47" d="M60.3 41.8c0 8.2-6.7 14.9-14.9 14.9S30.5 50 30.5 41.8s6.7-14.9 14.9-14.9 14.9 6.7 14.9 14.9"/><path class="st60" d="M70.7 40.9c3.1 10.2-4.8 21.6-4.8 21.6s-12.9-5.1-16-15.3c-3.1-10.2 4.8-21.6 4.8-21.6s12.9 5.1 16 15.3"/><path class="st41" d="M54.7 25.5s12.9 5.1 16 15.3c3.1 10.2-4.8 21.6-4.8 21.6"/><path class="st60" d="M88.9 56.1c-7.5 7.6-21.3 6-21.3 6S66 48.3 73.5 40.8c7.5-7.6 21.3-6 21.3-6s1.6 13.7-5.9 21.3"/><path class="st41" d="M94.8 34.7s1.6 13.8-5.9 21.3c-7.5 7.6-21.3 6-21.3 6"/><path class="st61" d="M91.6 48.5c0 8.2-6.7 14.9-14.9 14.9s-14.9-6.7-14.9-14.9 6.7-14.9 14.9-14.9 14.9 6.7 14.9 14.9M53.8 48.5c0 8.2-6.7 14.9-14.9 14.9S24 56.7 24 48.5s6.7-14.9 14.9-14.9c8.3 0 14.9 6.7 14.9 14.9"/><path class="st41" d="M38.3 39.7c7.5 7.5 6 21.3 6 21.3S30.5 62.6 23 55c-7.5-7.5-6-21.3-6-21.3s13.7-1.5 21.3 6"/><path class="st60" d="M16.9 33.8s13.8-1.6 21.3 6c7.5 7.5 6 21.3 6 21.3"/><path class="st4" d="M95.6 50.1c0 22.1-17.9 40-40 40s-40-17.9-40-40h80z"/><path class="st3" d="M77.7 50.1l-37 37c4.6 1.9 9.7 2.9 15 2.9 22.1 0 40-17.9 40-40h-18z"/></svg>