<svg id="Layer_1" xmlns="http://www.w3.org/2000/svg" xmlns:xlink="http://www.w3.org/1999/xlink" viewBox="0 0 111.3 111.3"><style>.st0{fill:none;stroke:#fc1037;stroke-width:4;stroke-miterlimit:10}.st1{fill:#efc167}.st2{clip-path:url(#SVGID_2_);fill:#d6bd88}.st3{fill:#852c42}.st4{fill:#9b5166}.st5{fill:#fff2bb}.st6{fill:#687c15}.st7{fill:#5e6b13}.st8{fill:#fff54c}.st9{fill:#f7e597}.st10{fill:#7baa49}.st11{fill:#96d85b}.st12{clip-path:url(#SVGID_4_);fill:#d6bd88}.st13{fill:#cce8f3}.st14{fill:#054a5e}.st15{fill:#96d0e2}.st16{fill:#62b8db}.st17{clip-path:url(#SVGID_6_);fill:#d6bd88}.st18{fill:#1e5c6e}.st19{fill:#ffe669}.st20{fill:#e8f4f9}.st21,.st22{fill:none;stroke:#50818f;stroke-width:1.761;stroke-miterlimit:10}.st22{stroke:#914255;stroke-width:1.784}.st23{clip-path:url(#SVGID_8_);fill:#d6bd88}.st24{fill:#c3e3ed}.st25{clip-path:url(#SVGID_10_);fill:#d6bd88}.st26{fill:#376e7e}.st27{fill:none;stroke:#efc167;stroke-width:1.956;stroke-miterlimit:10}.st28{clip-path:url(#SVGID_12_);fill:#d6bd88}.st29{fill:#fffa5f}.st30{fill:none;stroke:#efc167;stroke-width:1.118;stroke-miterlimit:10}.st31{fill:#fdffca}.st32{fill:#a0d4e9}.st33{clip-path:url(#SVGID_14_);fill:#d6bd88}.st34{fill:#04bbdf}.st35{fill:#b3d335}.st36{opacity:.3}.st37{clip-path:url(#SVGID_16_);fill:#fff}.st38,.st39,.st40{clip-path:url(#SVGID_18_);fill:#d6bd88}.st39,.st40{clip-path:url(#SVGID_20_)}.st40{clip-path:url(#SVGID_22_)}.st41{fill:#04bf00}.st42{fill:#9d5668}.st43{clip-path:url(#SVGID_24_);fill:#d6bd88}.st44{fill:#f5daa4}.st45{clip-path:url(#SVGID_26_);fill:#d6bd88}.st46{fill:#dae8ed}.st47{fill:#fff}.st48,.st49{fill:none;stroke:#50818f;stroke-width:2.932;stroke-miterlimit:10}.st49{stroke-width:2.153}.st50{fill:#ff5200}.st51{clip-path:url(#SVGID_28_);fill:#d6bd88}.st52{fill:#ff6200}.st53,.st54{clip-path:url(#SVGID_30_);fill:#d6bd88}.st54{clip-path:url(#SVGID_32_)}.st55{fill:#eed9b5}.st56,.st57,.st58{clip-path:url(#SVGID_34_);fill:#fff}.st57,.st58{fill:#f5daa4}.st58{fill:#852c42}.st59{clip-path:url(#SVGID_36_);fill:#d6bd88}.st60{fill:#5ed65b}.st61{fill:#ff4e22}.st62{clip-path:url(#SVGID_38_);fill:#d6bd88}.st63{fill:#ffc9bf}.st64,.st65{fill:none;stroke-width:2.527;stroke-miterlimit:10}.st64{stroke-linecap:round;stroke-linejoin:round;stroke:#ffc9bf}.st65{stroke:#fff1eb}.st66{clip-path:url(#SVGID_40_);fill:#d6bd88}.st67{fill:#ffec9c}.st68{fill:none;stroke-linecap:round}.st68,.st69{stroke:#fffae3;stroke-width:3;stroke-miterlimit:10}.st69,.st70{fill:none}.st71{clip-path:url(#SVGID_42_);fill:#d6bd88}.st72{fill:#fffae3}.st73{clip-path:url(#SVGID_44_);fill:#d6bd88}.st74{fill:#ffffd9}.st75{fill:#997a59}.st76{fill:#683300}.st77{fill:#774e22}.st78{fill:#ff0014}.st79{clip-path:url(#SVGID_46_);fill:#d6bd88}.st80{fill:#00b3df}.st81{fill:#1fd2ff}.st82{fill:#1fe8ff}.st83{fill:#344756}.st84{fill:#f3c149}.st85{fill:#ffbe4b}</style><path class="st1" d="M111.3 55.7c0 30.7-24.9 55.7-55.7 55.7C24.9 111.3 0 86.4 0 55.7 0 24.9 24.9 0 55.7 0c30.7 0 55.6 24.9 55.6 55.7"/><defs><path id="SVGID_39_" d="M26.7 52.9h83.4v58.4H26.7z"/></defs><clipPath id="SVGID_2_"><use xlink:href="#SVGID_39_" overflow="visible"/></clipPath><path class="st2" d="M26.7 80.4l30.9 30.9c25.9-.9 47.3-19.4 52.5-43.9L95.6 52.9 68.1 77.6l-41.4 2.8z"/><path class="st67" d="M52.1 24.6h56.2v3.5H52.1z"/><path class="st68" d="M61 13.3c-12.6 18.5 14.8 20-2.4 43.1"/><path class="st67" d="M52.1 16.1h56.2v3.5H52.1z"/><path class="st69" d="M26.6 61.7c-12.2-1.4-2.9-21.2 2.9-16.1 5.8 5.1 1.3 10.9 1.1 16-10.1-6.4-3.1-22.8 8.1-22.8 11.1 0 13 17.9 1.3 18.7-8-22.6 23.4-19.3 20.3-2-1.2 7.1-10.2 11.1-11.3 2.1-1.7-12.7 6-16.8 13.5-16.8s19 12.8 12.2 16.2c-5.2 2.6-3.7-9.1-1.6-12.4 7.4-11.5 18.7 4.4 10 16.3"/><path class="st24" d="M95.6 52.9c0 22.1-17.9 40-40 40s-40-17.9-40-40h80z"/><path class="st15" d="M77.7 52.9l-37 37c4.6 1.9 9.7 2.9 15 2.9 22.1 0 40-17.9 40-40h-18z"/><path class="st70" d="M0 55.7c0 30.7 24.9 55.7 55.7 55.7 30.7 0 55.7-24.9 55.7-55.7C111.3 24.9 86.4 0 55.7 0 24.9 0 0 24.9 0 55.7"/></svg>