<svg id="Layer_1" xmlns="http://www.w3.org/2000/svg" xmlns:xlink="http://www.w3.org/1999/xlink" viewBox="0 0 111.3 111.3"><style>.st0{fill:none;stroke:#fc1037;stroke-width:4;stroke-miterlimit:10}.st1{fill:#efc167}.st2{clip-path:url(#SVGID_2_);fill:#d6bd88}.st3{fill:#852c42}.st4{fill:#9b5166}.st5{fill:#fff2bb}.st6{fill:#687c15}.st7{fill:#5e6b13}.st8{fill:#fff54c}.st9{fill:#f7e597}.st10{fill:#7baa49}.st11{fill:#96d85b}.st12{clip-path:url(#SVGID_4_);fill:#d6bd88}.st13{fill:#cce8f3}.st14{fill:#054a5e}.st15{fill:#96d0e2}.st16{fill:#62b8db}.st17{clip-path:url(#SVGID_6_);fill:#d6bd88}.st18{fill:#1e5c6e}.st19{fill:#ffe669}.st20{fill:#e8f4f9}.st21,.st22{fill:none;stroke:#50818f;stroke-width:1.761;stroke-miterlimit:10}.st22{stroke:#914255;stroke-width:1.784}.st23{clip-path:url(#SVGID_8_);fill:#d6bd88}.st24{fill:#c3e3ed}.st25{clip-path:url(#SVGID_10_);fill:#d6bd88}.st26{fill:#376e7e}.st27{fill:none;stroke:#efc167;stroke-width:1.956;stroke-miterlimit:10}.st28{clip-path:url(#SVGID_12_);fill:#d6bd88}.st29{fill:#fffa5f}.st30{fill:none;stroke:#efc167;stroke-width:1.118;stroke-miterlimit:10}.st31{fill:#fdffca}.st32{fill:#a0d4e9}.st33{clip-path:url(#SVGID_14_);fill:#d6bd88}.st34{fill:#04bbdf}.st35{fill:#b3d335}.st36{opacity:.3}.st37{clip-path:url(#SVGID_16_);fill:#fff}.st38,.st39,.st40{clip-path:url(#SVGID_18_);fill:#d6bd88}.st39,.st40{clip-path:url(#SVGID_20_)}.st40{clip-path:url(#SVGID_22_)}.st41{fill:#04bf00}.st42{fill:#9d5668}.st43{clip-path:url(#SVGID_24_);fill:#d6bd88}.st44{fill:#f5daa4}.st45{clip-path:url(#SVGID_26_);fill:#d6bd88}.st46{fill:#dae8ed}.st47{fill:#fff}.st48,.st49{fill:none;stroke:#50818f;stroke-width:2.932;stroke-miterlimit:10}.st49{stroke-width:2.153}.st50{fill:#ff5200}.st51{clip-path:url(#SVGID_28_);fill:#d6bd88}.st52{fill:#ff6200}.st53,.st54{clip-path:url(#SVGID_30_);fill:#d6bd88}.st54{clip-path:url(#SVGID_32_)}.st55{fill:#eed9b5}.st56,.st57,.st58{clip-path:url(#SVGID_34_);fill:#fff}.st57,.st58{fill:#f5daa4}.st58{fill:#852c42}.st59{clip-path:url(#SVGID_36_);fill:#d6bd88}.st60{fill:#5ed65b}.st61{fill:#ff4e22}.st62{clip-path:url(#SVGID_38_);fill:#d6bd88}.st63{fill:#ffc9bf}.st64,.st65{fill:none;stroke-width:2.527;stroke-miterlimit:10}.st64{stroke-linecap:round;stroke-linejoin:round;stroke:#ffc9bf}.st65{stroke:#fff1eb}.st66{clip-path:url(#SVGID_40_);fill:#d6bd88}.st67{fill:#ffec9c}.st68{fill:none;stroke-linecap:round}.st68,.st69{stroke:#fffae3;stroke-width:3;stroke-miterlimit:10}.st69,.st70{fill:none}.st71{clip-path:url(#SVGID_42_);fill:#d6bd88}.st72{fill:#fffae3}.st73{clip-path:url(#SVGID_44_);fill:#d6bd88}.st74{fill:#ffffd9}.st75{fill:#997a59}.st76{fill:#683300}.st77{fill:#774e22}.st78{fill:#ff0014}.st79{clip-path:url(#SVGID_46_);fill:#d6bd88}.st80{fill:#00b3df}.st81{fill:#1fd2ff}.st82{fill:#1fe8ff}.st83{fill:#344756}.st84{fill:#f3c149}.st85{fill:#ffbe4b}</style><path class="st1" d="M111.3 55.7c0 30.7-24.9 55.7-55.7 55.7S0 86.4 0 55.7C0 24.9 24.9 0 55.7 0s55.6 24.9 55.6 55.7"/><defs><path id="SVGID_1_" d="M21.4 40.5h77.7v70.9H21.4z"/></defs><clipPath id="SVGID_2_"><use xlink:href="#SVGID_1_" overflow="visible"/></clipPath><path class="st2" d="M99.1 90.5L79.6 71.1l7.8-20.3v-5l-44.9-5.3c-7.9 8.6-9.2 2.9-11.3 14.9l-9.8 33.5 20.9 20.9c4.3 1.1 8.8 1.6 13.4 1.6 17.5-.1 33.2-8.2 43.4-20.9"/><path class="st3" d="M65.7 46.7c0-6.7 5.4-12.1 12.1-12.1S89.9 40 89.9 46.7v44.6H65.7V46.7z"/><path class="st3" d="M73.6 32.2H82V38h-8.4z"/><path class="st4" d="M73.6 32.2h4.2V38h-4.2z"/><path class="st4" d="M77.8 91.3H65.7V46.7c0-6.7 5.4-12.1 12.1-12.1"/><path class="st5" d="M73.6 15.1H82v17.2h-8.4zM65.7 48.1h21.5v18.7H65.7z"/><path class="st6" d="M45.6 44.2c0-6.7-5.4-12.1-12.1-12.1-6.7 0-12.1 5.4-12.1 12.1v44.6h24.2V44.2z"/><path class="st6" d="M29.3 29.7h8.4v5.8h-8.4z"/><path class="st7" d="M33.5 29.7h4.2v5.8h-4.2z"/><path class="st7" d="M33.5 88.8h12.1V44.2c0-6.7-5.4-12.1-12.1-12.1"/><path class="st3" d="M29.3 12.6h8.4v17.2h-8.4z"/><path class="st8" d="M21.4 45.6h21.5v18.7H21.4z"/><path class="st5" d="M67.1 48.5c0-6.7-5.4-12.1-12.1-12.1-6.7 0-12.1 5.4-12.1 12.1v44.6h24.2V48.5z"/><path class="st5" d="M50.8 34h8.4v5.8h-8.4z"/><path class="st9" d="M55 34h4.2v5.8H55z"/><path class="st9" d="M55 93.1h12.1V48.5c0-6.7-5.4-12.1-12.1-12.1"/><path class="st10" d="M50.8 16.8h8.4V34h-8.4z"/><path class="st11" d="M42.9 49.9h21.5v18.7H42.9z"/></svg>