<svg id="Layer_1" xmlns="http://www.w3.org/2000/svg" xmlns:xlink="http://www.w3.org/1999/xlink" viewBox="0 0 111.3 111.3"><style>.st0{fill:none;stroke:#fc1037;stroke-width:4;stroke-miterlimit:10}.st1{fill:#efc167}.st2{clip-path:url(#SVGID_2_);fill:#d6bd88}.st3{fill:#852c42}.st4{fill:#9b5166}.st5{fill:#fff2bb}.st6{fill:#687c15}.st7{fill:#5e6b13}.st8{fill:#fff54c}.st9{fill:#f7e597}.st10{fill:#7baa49}.st11{fill:#96d85b}.st12{clip-path:url(#SVGID_4_);fill:#d6bd88}.st13{fill:#cce8f3}.st14{fill:#054a5e}.st15{fill:#96d0e2}.st16{fill:#62b8db}.st17{clip-path:url(#SVGID_6_);fill:#d6bd88}.st18{fill:#1e5c6e}.st19{fill:#ffe669}.st20{fill:#e8f4f9}.st21,.st22{fill:none;stroke:#50818f;stroke-width:1.761;stroke-miterlimit:10}.st22{stroke:#914255;stroke-width:1.784}.st23{clip-path:url(#SVGID_8_);fill:#d6bd88}.st24{fill:#c3e3ed}.st25{clip-path:url(#SVGID_10_);fill:#d6bd88}.st26{fill:#376e7e}.st27{fill:none;stroke:#efc167;stroke-width:1.956;stroke-miterlimit:10}.st28{clip-path:url(#SVGID_12_);fill:#d6bd88}.st29{fill:#fffa5f}.st30{fill:none;stroke:#efc167;stroke-width:1.118;stroke-miterlimit:10}.st31{fill:#fdffca}.st32{fill:#a0d4e9}.st33{clip-path:url(#SVGID_14_);fill:#d6bd88}.st34{fill:#04bbdf}.st35{fill:#b3d335}.st36{opacity:.3}.st37{clip-path:url(#SVGID_16_);fill:#fff}.st38,.st39,.st40{clip-path:url(#SVGID_18_);fill:#d6bd88}.st39,.st40{clip-path:url(#SVGID_20_)}.st40{clip-path:url(#SVGID_22_)}.st41{fill:#04bf00}.st42{fill:#9d5668}.st43{clip-path:url(#SVGID_24_);fill:#d6bd88}.st44{fill:#f5daa4}.st45{clip-path:url(#SVGID_26_);fill:#d6bd88}.st46{fill:#dae8ed}.st47{fill:#fff}.st48,.st49{fill:none;stroke:#50818f;stroke-width:2.932;stroke-miterlimit:10}.st49{stroke-width:2.153}.st50{fill:#ff5200}.st51{clip-path:url(#SVGID_28_);fill:#d6bd88}.st52{fill:#ff6200}.st53,.st54{clip-path:url(#SVGID_30_);fill:#d6bd88}.st54{clip-path:url(#SVGID_32_)}.st55{fill:#eed9b5}.st56,.st57,.st58{clip-path:url(#SVGID_34_);fill:#fff}.st57,.st58{fill:#f5daa4}.st58{fill:#852c42}.st59{clip-path:url(#SVGID_36_);fill:#d6bd88}.st60{fill:#5ed65b}.st61{fill:#ff4e22}.st62{clip-path:url(#SVGID_38_);fill:#d6bd88}.st63{fill:#ffc9bf}.st64,.st65{fill:none;stroke-width:2.527;stroke-miterlimit:10}.st64{stroke-linecap:round;stroke-linejoin:round;stroke:#ffc9bf}.st65{stroke:#fff1eb}.st66{clip-path:url(#SVGID_40_);fill:#d6bd88}.st67{fill:#ffec9c}.st68{fill:none;stroke-linecap:round}.st68,.st69{stroke:#fffae3;stroke-width:3;stroke-miterlimit:10}.st69,.st70{fill:none}.st71{clip-path:url(#SVGID_42_);fill:#d6bd88}.st72{fill:#fffae3}.st73{clip-path:url(#SVGID_44_);fill:#d6bd88}.st74{fill:#ffffd9}.st75{fill:#997a59}.st76{fill:#683300}.st77{fill:#774e22}.st78{fill:#ff0014}.st79{clip-path:url(#SVGID_46_);fill:#d6bd88}.st80{fill:#00b3df}.st81{fill:#1fd2ff}.st82{fill:#1fe8ff}.st83{fill:#344756}.st84{fill:#f3c149}.st85{fill:#ffbe4b}</style><path class="st1" d="M111.3 55.7c0 30.7-24.9 55.7-55.7 55.7C24.9 111.3 0 86.4 0 55.7 0 24.9 24.9 0 55.7 0c30.7 0 55.6 24.9 55.6 55.7"/><defs><path id="SVGID_11_" d="M46.8 28.9h63.6V110H46.8z"/></defs><clipPath id="SVGID_2_"><use xlink:href="#SVGID_11_" overflow="visible"/></clipPath><path class="st2" d="M46.8 88.5l21.4 21.4c21.4-4.9 38-22.1 42.2-43.8L73 28.9 46.8 88.5z"/><path class="st29" d="M55.7 77.8c6.9 0 9.8.1 9.8-5 0-9 13.1-16.7 13.1-28.9C78.6 31.3 68.3 21 55.7 21c-12.6 0-22.9 10.3-22.9 22.9 0 12.2 13.1 19.9 13.1 28.9 0 5.1 2.9 5 9.8 5"/><path class="st1" d="M54.8 64.4h1.1V76h-1.1z"/><path class="st30" d="M61.1 49.7l-5.7 15.5-5.7-15.5z"/><path class="st31" d="M46.7 75c1.4-8.9-10.3-18.6-8.4-30.6 2-12.5 13.8-21 26.2-19 2.7.4 5.2 1.3 7.4 2.6-4.2-4.2-9.9-6.9-16.4-6.9C43 21.1 32.8 31.3 32.8 44c0 12.2 13.1 19.9 13.1 28.9 0 1.4.2 2.5.7 3.2 0-.4.1-.8.1-1.1"/><path class="st14" d="M50.8 84.3v6c1.5 1.7 3.1 2.6 4.9 2.6 1.7 0 3.4-.9 4.9-2.6v-6c-1.5 1.7-3.1 2.6-4.9 2.6-1.8 0-3.4-.9-4.9-2.6"/><path class="st32" d="M45.9 74.1l.8 14.4c2.7.7 5.7 1.1 8.9 1.1s6.2-.4 8.9-1.1l.8-14.4c-3 .8-6.3 1.3-9.7 1.3-3.4 0-6.7-.5-9.7-1.3"/></svg>