<svg id="Layer_1" xmlns="http://www.w3.org/2000/svg" viewBox="0 0 20.1 20.1"><style>.st0{fill:none;stroke:#fc1037;stroke-width:4;stroke-miterlimit:10}.st1{fill:#efc167}.st2{clip-path:url(#SVGID_2_);fill:#d6bd88}.st3{fill:#852c42}.st4{fill:#9b5166}.st5{fill:#fff2bb}.st6{fill:#687c15}.st7{fill:#5e6b13}.st8{fill:#fff54c}.st9{fill:#f7e597}.st10{fill:#7baa49}.st11{fill:#96d85b}.st12{clip-path:url(#SVGID_4_);fill:#d6bd88}.st13{fill:#cce8f3}.st14{fill:#054a5e}.st15{fill:#96d0e2}.st16{fill:#62b8db}.st17{clip-path:url(#SVGID_6_);fill:#d6bd88}.st18{fill:#1e5c6e}.st19{fill:#ffe669}.st20{fill:#e8f4f9}.st21,.st22{fill:none;stroke:#50818f;stroke-width:1.761;stroke-miterlimit:10}.st22{stroke:#914255;stroke-width:1.784}.st23{clip-path:url(#SVGID_8_);fill:#d6bd88}.st24{fill:#c3e3ed}.st25{clip-path:url(#SVGID_10_);fill:#d6bd88}.st26{fill:#376e7e}.st27{fill:none;stroke:#efc167;stroke-width:1.956;stroke-miterlimit:10}.st28{clip-path:url(#SVGID_12_);fill:#d6bd88}.st29{fill:#fffa5f}.st30{fill:none;stroke:#efc167;stroke-width:1.118;stroke-miterlimit:10}.st31{fill:#fdffca}.st32{fill:#a0d4e9}.st33{clip-path:url(#SVGID_14_);fill:#d6bd88}.st34{fill:#04bbdf}.st35{fill:#b3d335}.st36{opacity:.3}.st37{clip-path:url(#SVGID_16_);fill:#fff}.st38,.st39,.st40{clip-path:url(#SVGID_18_);fill:#d6bd88}.st39,.st40{clip-path:url(#SVGID_20_)}.st40{clip-path:url(#SVGID_22_)}.st41{fill:#04bf00}.st42{fill:#9d5668}.st43{clip-path:url(#SVGID_24_);fill:#d6bd88}.st44{fill:#f5daa4}.st45{clip-path:url(#SVGID_26_);fill:#d6bd88}.st46{fill:#dae8ed}.st47{fill:#fff}.st48,.st49{fill:none;stroke:#50818f;stroke-width:2.932;stroke-miterlimit:10}.st49{stroke-width:2.153}.st50{fill:#ff5200}.st51{clip-path:url(#SVGID_28_);fill:#d6bd88}.st52{fill:#ff6200}.st53,.st54{clip-path:url(#SVGID_30_);fill:#d6bd88}.st54{clip-path:url(#SVGID_32_)}.st55{fill:#eed9b5}.st56,.st57,.st58{clip-path:url(#SVGID_34_);fill:#fff}.st57,.st58{fill:#f5daa4}.st58{fill:#852c42}.st59{clip-path:url(#SVGID_36_);fill:#d6bd88}.st60{fill:#5ed65b}.st61{fill:#ff4e22}.st62{clip-path:url(#SVGID_38_);fill:#d6bd88}.st63{fill:#ffc9bf}.st64,.st65{fill:none;stroke-width:2.527;stroke-miterlimit:10}.st64{stroke-linecap:round;stroke-linejoin:round;stroke:#ffc9bf}.st65{stroke:#fff1eb}.st66{clip-path:url(#SVGID_40_);fill:#d6bd88}.st67{fill:#ffec9c}.st68{fill:none;stroke-linecap:round}.st68,.st69{stroke:#fffae3;stroke-width:3;stroke-miterlimit:10}.st69,.st70{fill:none}.st71{clip-path:url(#SVGID_42_);fill:#d6bd88}.st72{fill:#fffae3}.st73{clip-path:url(#SVGID_44_);fill:#d6bd88}.st74{fill:#ffffd9}.st75{fill:#997a59}.st76{fill:#683300}.st77{fill:#774e22}.st78{fill:#ff0014}.st79{clip-path:url(#SVGID_46_);fill:#d6bd88}.st80{fill:#00b3df}.st81{fill:#1fd2ff}.st82{fill:#1fe8ff}.st83{fill:#344756}.st84{fill:#f3c149}.st85{fill:#ffbe4b}</style><circle class="st85" cx="14.4" cy="18.8" r="1.3"/><circle class="st85" cx="6.3" cy="18.8" r="1.3"/><path class="st85" d="M.6 1.2l2.8.5 1.9 7.5v-.1 1H3.9l1.4 3.2h-.4l-.1.1-.1.1v.1h.1s0 .3.1.3c0 0 0 .1.1.1h11.8l-.3 2H3.8c-.3 0-.6.2-.6.5s.3.5.6.5H17c.1 0 .2-.4.2-.4s0-.3.1-.3l.1-.1s0-.1.1-.1l.1-.1v-.1-.1l.6-2.5 1.9-7.5v-.3-.1c0-.1 0-.1-.1-.2l-.1-.1-.1-.1h-.1-.1L4.1 3.2l-.3-2c0-.2-.2-.5-.5-.5L.8 0C.4-.1.1.1 0 .5c-.1.3.2.7.6.7zm8.5 3.7L9.2 9H7.6l-.5-4.1h2zm3.2.4L12.1 9h-1.6l-.2-3.8 2 .1zm3.2.4L15 9h-1.7l.2-3.4 2 .1zm3.2.4L18 9h-1.7l.4-3 2 .1zM15.8 13l.4-3h1.6l-.6 3h-1.4zm-2.6 0l.1-3h1.6l-.4 3h-1.3zm-2.6 0l-.1-3H12v3h-1.4zm-2.5 0l-.3-3h1.5l.1 3H8.1zm-2.9-3h1.3l.3 3H5.6l-.4-3zm-.1-1l-.6-4.6 1.3.4.6 4.2H5.1z"/></svg>