<svg id="Layer_1" xmlns="http://www.w3.org/2000/svg" xmlns:xlink="http://www.w3.org/1999/xlink" viewBox="0 0 111.3 111.3"><style>.st0{fill:none;stroke:#fc1037;stroke-width:4;stroke-miterlimit:10}.st1{fill:#efc167}.st2{clip-path:url(#SVGID_2_);fill:#d6bd88}.st3{fill:#852c42}.st4{fill:#9b5166}.st5{fill:#fff2bb}.st6{fill:#687c15}.st7{fill:#5e6b13}.st8{fill:#fff54c}.st9{fill:#f7e597}.st10{fill:#7baa49}.st11{fill:#96d85b}.st12{clip-path:url(#SVGID_4_);fill:#d6bd88}.st13{fill:#cce8f3}.st14{fill:#054a5e}.st15{fill:#96d0e2}.st16{fill:#62b8db}.st17{clip-path:url(#SVGID_6_);fill:#d6bd88}.st18{fill:#1e5c6e}.st19{fill:#ffe669}.st20{fill:#e8f4f9}.st21,.st22{fill:none;stroke:#50818f;stroke-width:1.761;stroke-miterlimit:10}.st22{stroke:#914255;stroke-width:1.784}.st23{clip-path:url(#SVGID_8_);fill:#d6bd88}.st24{fill:#c3e3ed}.st25{clip-path:url(#SVGID_10_);fill:#d6bd88}.st26{fill:#376e7e}.st27{fill:none;stroke:#efc167;stroke-width:1.956;stroke-miterlimit:10}.st28{clip-path:url(#SVGID_12_);fill:#d6bd88}.st29{fill:#fffa5f}.st30{fill:none;stroke:#efc167;stroke-width:1.118;stroke-miterlimit:10}.st31{fill:#fdffca}.st32{fill:#a0d4e9}.st33{clip-path:url(#SVGID_14_);fill:#d6bd88}.st34{fill:#04bbdf}.st35{fill:#b3d335}.st36{opacity:.3}.st37{clip-path:url(#SVGID_16_);fill:#fff}.st38,.st39,.st40{clip-path:url(#SVGID_18_);fill:#d6bd88}.st39,.st40{clip-path:url(#SVGID_20_)}.st40{clip-path:url(#SVGID_22_)}.st41{fill:#04bf00}.st42{fill:#9d5668}.st43{clip-path:url(#SVGID_24_);fill:#d6bd88}.st44{fill:#f5daa4}.st45{clip-path:url(#SVGID_26_);fill:#d6bd88}.st46{fill:#dae8ed}.st47{fill:#fff}.st48,.st49{fill:none;stroke:#50818f;stroke-width:2.932;stroke-miterlimit:10}.st49{stroke-width:2.153}.st50{fill:#ff5200}.st51{clip-path:url(#SVGID_28_);fill:#d6bd88}.st52{fill:#ff6200}.st53,.st54{clip-path:url(#SVGID_30_);fill:#d6bd88}.st54{clip-path:url(#SVGID_32_)}.st55{fill:#eed9b5}.st56,.st57,.st58{clip-path:url(#SVGID_34_);fill:#fff}.st57,.st58{fill:#f5daa4}.st58{fill:#852c42}.st59{clip-path:url(#SVGID_36_);fill:#d6bd88}.st60{fill:#5ed65b}.st61{fill:#ff4e22}.st62{clip-path:url(#SVGID_38_);fill:#d6bd88}.st63{fill:#ffc9bf}.st64,.st65{fill:none;stroke-width:2.527;stroke-miterlimit:10}.st64{stroke-linecap:round;stroke-linejoin:round;stroke:#ffc9bf}.st65{stroke:#fff1eb}.st66{clip-path:url(#SVGID_40_);fill:#d6bd88}.st67{fill:#ffec9c}.st68{fill:none;stroke-linecap:round}.st68,.st69{stroke:#fffae3;stroke-width:3;stroke-miterlimit:10}.st69,.st70{fill:none}.st71{clip-path:url(#SVGID_42_);fill:#d6bd88}.st72{fill:#fffae3}.st73{clip-path:url(#SVGID_44_);fill:#d6bd88}.st74{fill:#ffffd9}.st75{fill:#997a59}.st76{fill:#683300}.st77{fill:#774e22}.st78{fill:#ff0014}.st79{clip-path:url(#SVGID_46_);fill:#d6bd88}.st80{fill:#00b3df}.st81{fill:#1fd2ff}.st82{fill:#1fe8ff}.st83{fill:#344756}.st84{fill:#f3c149}.st85{fill:#ffbe4b}</style><path class="st1" d="M111.3 55.7c0 30.7-24.9 55.7-55.7 55.7C24.9 111.3 0 86.4 0 55.7 0 24.9 24.9 0 55.7 0c30.7 0 55.6 24.9 55.6 55.7"/><defs><path id="SVGID_21_" d="M33.8 40.1h74.8v69.6H33.8z"/></defs><clipPath id="SVGID_2_"><use xlink:href="#SVGID_21_" overflow="visible"/></clipPath><path class="st2" d="M69.3 109.7c18.6-4.7 33.5-18.7 39.4-36.8L75.8 40.1l-16.7 34L41 56l-7.1 7.1 7.8 7.8-3.7 3.7 14 14-1.2 2.5 18.5 18.6z"/><path class="st3" d="M59.7 86.9c-.2 3.4-2.8 6-5.8 5.9-3-.2-5.4-3-5.2-6.4.2-3.4 2.8-6 5.8-5.9 3 .1 5.3 3 5.2 6.4"/><path class="st3" d="M68.4 64.3c-.5 10.8-7.2 19.3-14.9 18.9-7.7-.4-13.5-9.4-13-20.3.5-10.8 7.2-19.3 14.9-18.9 7.7.5 13.5 9.5 13 20.3M76.7 43.3c-.1 2.3-1.9 4.2-4 4.1-2.1-.1-3.7-2.1-3.6-4.4.1-2.3 1.9-4.2 4-4 2.1 0 3.7 2 3.6 4.3"/><path class="st3" d="M80.9 53.1c-.2 3.6-2.9 6.3-6.1 6.2-3.2-.2-5.6-3.2-5.4-6.7.2-3.6 2.9-6.3 6.1-6.2 3.2.2 5.6 3.2 5.4 6.7"/><path class="st41" d="M54.8 41.8c4.2-1.1 8.6-2.4 8.8-7.4.2-5.6-5.8-10.3-6.1-16-.2-3.5 4.5-5.8 7.4-4.2 1.1.6 1.9 1.8 2.5 2.8 1.3 2.1 1.7 4.9 1.1 7.2-.2 1-.9 1.1-2.2.2-.1-2 1.1-3.1 3.5-3.3 1.5.3 3 1.5 4.2 2.5 2.4 1.9 4.5 4.5 6.2 7 .3.5 2.1-.3 1.9-.5-3.1-4.6-9.9-13.3-16.1-8.7-1.9 1.4-2.4 5.6 1 5 2.1-.4 3.7-1.6 3.8-4 .4-6.8-5.9-12.8-12.3-8.3C47 22 73.3 36.2 54.6 41.2c-1.1.3-.9.9.2.6"/><path class="st42" d="M77.5 51.3c-.2 3.1-2.5 5.5-5.3 5.4-2.8-.1-4.9-2.8-4.7-5.9.2-3.1 2.5-5.5 5.3-5.4 2.7.1 4.9 2.8 4.7 5.9"/><path class="st42" d="M77.9 60.8c-.2 3.1-2.5 5.5-5.3 5.4-2.8-.1-4.9-2.8-4.7-5.9.2-3.1 2.5-5.5 5.3-5.4 2.8.2 4.9 2.8 4.7 5.9M71.2 44.1c-.1 2.3-1.9 4.2-4 4.1-2.1-.1-3.7-2.1-3.6-4.4.1-2.3 1.9-4.2 4-4.1 2.1.1 3.7 2.1 3.6 4.4M71.8 72.9c-.1 2.3-1.9 4.2-4 4.1-2.1-.1-3.7-2.1-3.6-4.4.1-2.3 1.9-4.2 4-4 2.1 0 3.7 1.9 3.6 4.3"/><path class="st3" d="M64.6 44.4c-.2 3.7-3 6.5-6.3 6.4-3.3-.2-5.8-3.3-5.6-7 .2-3.7 3-6.5 6.3-6.4 3.3.2 5.8 3.4 5.6 7M42.7 47c-.2 3.7-3 6.5-6.3 6.4-3.3-.2-5.8-3.3-5.6-7 .2-3.7 3-6.5 6.3-6.4 3.3.2 5.8 3.3 5.6 7"/><path class="st42" d="M43.5 58.4c-.2 3.7-3 6.5-6.3 6.4-3.3-.2-5.8-3.3-5.6-7 .2-3.7 3-6.5 6.3-6.4 3.2.2 5.7 3.3 5.6 7"/><path class="st3" d="M47.6 69.9c-.2 3.7-3 6.5-6.3 6.4-3.3-.2-5.8-3.3-5.6-7 .2-3.7 3-6.5 6.3-6.4 3.2.2 5.7 3.3 5.6 7M71.5 53.1c-.2 3.7-3 6.5-6.3 6.4-3.3-.2-5.8-3.3-5.6-7 .2-3.7 3-6.5 6.3-6.4 3.2.2 5.8 3.4 5.6 7"/><path class="st3" d="M75.2 64.1c-.2 3.7-3 6.5-6.3 6.4-3.3-.2-5.8-3.3-5.6-7s3-6.5 6.3-6.4c3.2.2 5.7 3.3 5.6 7M54.9 41.5c-.2 3.7-3 6.5-6.3 6.4-3.3-.2-5.8-3.3-5.6-7 .2-3.7 3-6.5 6.3-6.4 3.3.2 5.8 3.4 5.6 7"/><path class="st42" d="M50.2 50.5c-.2 3.7-3 6.5-6.3 6.4-3.3-.2-5.8-3.3-5.6-7 .2-3.7 3-6.5 6.3-6.4 3.3.2 5.8 3.3 5.6 7"/><path class="st3" d="M54.6 62.8c-.2 3.7-3 6.5-6.3 6.4-3.3-.2-5.8-3.3-5.6-7 .2-3.7 3-6.5 6.3-6.4 3.3.2 5.8 3.3 5.6 7"/><path class="st42" d="M55.4 76.6c-.2 3.7-3 6.5-6.3 6.4-3.3-.2-5.8-3.3-5.6-7 .2-3.7 3-6.5 6.3-6.4 3.2.2 5.8 3.3 5.6 7M62 52c-.2 3.7-3 6.5-6.3 6.4-3.3-.2-5.8-3.3-5.6-7 .2-3.7 3-6.5 6.3-6.4 3.3.2 5.8 3.3 5.6 7"/><path class="st42" d="M66.4 64.6c-.2 3.7-3 6.5-6.3 6.4-3.3-.2-5.8-3.3-5.6-7 .2-3.7 3-6.5 6.3-6.4 3.2.2 5.7 3.3 5.6 7"/><path class="st3" d="M67.1 78c-.2 3.7-3 6.5-6.3 6.4-3.3-.2-5.8-3.3-5.6-7 .2-3.7 3-6.5 6.3-6.4 3.3.2 5.8 3.3 5.6 7"/><path class="st41" d="M56.7 19c0-1.5-1.1-2.6-2.3-3.3-1.2-.7-4.1-2.1-5.5-2.1-.9 1.8-1.2 3.3-.2 4.4-1.8-.5-5.6-2-14.3 1.5 2.7.8 5.4.8 8.3 1.2-4.7.1-12.4 1.6-19.7 8.8 10 1.7 14.9-.3 20.7-1.2-2.2 1.7-1.7 4.4-1.7 4.4 5.1-.6 9.4-3.9 9.4-3.9s-1.2 2.2-.8 3.9c4.8-1.5 6.1-4.2 8.8-5.9"/></svg>